<?xml version="1.0" encoding="UTF-8"?>
<svg width="83px" height="83px" viewBox="0 0 83 83" version="1.1" xmlns="http://www.w3.org/2000/svg" xmlns:xlink="http://www.w3.org/1999/xlink">
    <!-- Generator: Sketch 54.1 (76490) - https://sketchapp.com -->
    <title>Artboard</title>
    <desc>Created with Sketch.</desc>
    <g id="Artboard" stroke="none" stroke-width="1" fill="none" fill-rule="evenodd">
        <path d="M16.0000325,53.8155698 C15.9947315,55.4522069 16.6386599,57.0237784 17.7898812,58.183874 C18.9411026,59.3439696 20.5051077,59.9973517 22.1371541,60 L55.5570245,60 C61.3649853,59.9828879 66.2445565,55.6170456 66.9211028,49.8323497 C67.5976491,44.0476537 63.8578518,38.6680503 58.2114543,37.3037417 C58.5158927,36.3322747 58.6706874,35.3199004 58.6704911,34.3015911 C58.6847782,29.9296055 55.9366999,26.0280867 51.8230326,24.5800749 C47.7093653,23.1320632 43.1325214,24.4552078 40.4187912,27.8769889 C34.8174577,26.4288335 28.8705355,28.0708225 24.7977781,32.1900655 C20.7250208,36.3093086 19.1384673,42.286781 20.6303161,47.891326 L20.5305255,47.891326 C17.862016,48.6171842 16.0070125,51.0428569 16.0000325,53.8155698 Z M48.4120179,26.5060068 C50.9522364,26.5027834 53.333359,27.7459498 54.787542,29.8346205 C56.2417251,31.9232913 56.5850149,34.5932502 55.7067104,36.9835123 L55.1578621,36.9835123 C54.8285532,36.9835123 54.5092232,36.9835123 54.1599562,37.0635697 L53.8506053,37.0635697 C53.5412545,37.0635697 53.2219246,37.1736485 52.9125737,37.2436987 L52.623181,37.3037417 C52.2339977,37.4138206 51.8448143,37.5339066 51.455631,37.674007 C51.3558404,37.4138206 51.2261127,37.1636414 51.116343,36.903455 L51.0564686,36.7733618 C51.0564686,36.7733618 51.0564686,36.7733618 51.0564686,36.7733618 C50.956678,36.5632112 50.8668665,36.3430535 50.7570969,36.132903 C50.6473272,35.9227525 50.5674947,35.8026664 50.4776832,35.6425517 C50.2880811,35.302308 50.0984789,34.9720714 49.8889187,34.6418349 C49.6793584,34.3115983 49.6394422,34.2715696 49.5097144,34.0914406 C49.3799866,33.9113116 49.100573,33.5410463 48.8810337,33.2708528 L48.4219969,32.7404729 C48.2024576,32.4902936 47.9629602,32.2501216 47.7234628,32.0099496 L47.2245098,31.5296055 C46.9650542,31.2994406 46.7055987,31.0792829 46.4361641,30.8691323 L45.9072739,30.4488313 C45.6079021,30.2386807 45.2985513,30.0385373 44.9892004,29.8484011 L44.5102056,29.5481861 C44.0910851,29.308014 43.6619855,29.0878563 43.2229069,28.887713 C43.1461829,28.8417318 43.0661255,28.8015903 42.9834095,28.7676269 L42.9834095,28.7676269 C44.4261796,27.3275222 46.3763922,26.5150414 48.4120179,26.5060068 L48.4120179,26.5060068 Z M21.1891434,50.2930465 L21.5284315,50.2229963 C21.8939852,51.0594244 22.324405,51.8658071 22.8157301,52.6347239 C23.1960086,53.2122752 23.9711679,53.371328 24.5470969,52.9899784 C25.1230259,52.6086287 25.281632,51.831286 24.9013536,51.2537347 C23.8604799,49.6815363 23.1570311,47.9094408 22.8356883,46.050007 C22.8167545,45.9883573 22.7934094,45.928158 22.7658348,45.869878 C22.6353301,45.1397336 22.565238,44.4000199 22.5562746,43.6582937 C22.5081313,37.1412851 27.0161623,31.4802516 33.3645106,30.0856749 C39.7128589,28.6910983 46.168031,31.9437846 48.8411174,37.8841575 C48.9508871,38.1343367 49.0506777,38.3945231 49.1504683,38.6447023 C49.2502589,38.8948815 49.3101332,39.0650034 49.3799866,39.2851611 C49.7146343,40.2775374 49.9355948,41.3048765 50.0386046,42.3473547 C50.0386046,42.7776629 50.0984789,43.2179783 50.0984789,43.6582937 C50.0984789,44.3491446 50.6569511,44.9091898 51.3458614,44.9091898 C52.0347717,44.9091898 52.5932438,44.3491446 52.5932438,43.6582937 C52.5932438,43.1479282 52.5932438,42.6575769 52.5233904,42.1171898 C52.4550056,41.4438571 52.3450246,40.7754283 52.1940814,40.1157561 C53.3990819,39.6370947 54.6912536,39.4188528 55.9861241,39.4752973 C56.1258309,39.4752973 56.2655377,39.4752973 56.3952655,39.4752973 L56.3952655,39.4752973 C61.3554197,39.7074232 65.1887724,43.9279241 64.9572986,48.9020501 C64.7258247,53.876176 60.5171787,57.7203266 55.5570245,57.4882007 L22.1371541,57.4882007 C20.3162926,57.4805286 18.7808272,56.125569 18.5416575,54.3153825 C18.3024878,52.5051959 19.4331029,50.795995 21.1891434,50.3130608 L21.1891434,50.2930465 Z" id="Shape" fill="#FFFFFF" fill-rule="nonzero"></path>
    </g>
</svg>