<?xml version="1.0" encoding="UTF-8"?>
<svg width="140px" height="140px" viewBox="0 0 140 140" version="1.1" xmlns="http://www.w3.org/2000/svg" xmlns:xlink="http://www.w3.org/1999/xlink">
    <!-- Generator: Sketch 54.1 (76490) - https://sketchapp.com -->
    <title>Artboard</title>
    <desc>Created with Sketch.</desc>
    <g id="Artboard" stroke="none" stroke-width="1" fill="none" fill-rule="evenodd">
        <g id="noun_House_859311" transform="translate(28.000000, 33.000000)" fill="#FFFFFF" fill-rule="nonzero">
            <g id="Group">
                <path d="M74.8,37.4 L43.3,12.5 C42.5,11.9 41.5,11.9 40.7,12.5 L9.2,37.4 C8.5,38 8,38.9 8,39.8 L8,71.6 C8,72.9 9.1,74 10.4,74 L31.7,74 C32.4,74 33.1,73.4 33.1,72.6 L33.1,48.4 C33.1,47.1 34.2,46 35.5,46 L48.8,46 C50.1,46 51.2,47.1 51.2,48.4 L51.2,72.7 C51.2,73.4 51.8,74.1 52.6,74.1 L73.9,74.1 C75.2,74.1 76.3,73 76.3,71.7 L76.3,39.8 C76,38.9 75.6,38 74.8,37.4 Z" id="Path"></path>
                <path d="M82.1,31.3 L69,21 L69,1.6 C69,0.7 68.3,0 67.4,0 L61.6,0 C60.7,0 60,0.7 60,1.6 L60,13.5 L44.3,1.3 C43,0.3 41.2,0.3 39.9,1.3 C32.5,7.2 8,26.4 1.9,31.2 C0.6,32.2 0.1,34.1 0.8,35.6 C1.8,37.6 4.4,38.1 6.1,36.8 L40.6,9.6 C41.4,9 42.5,9 43.3,9.6 L77.8,36.8 C78.4,37.3 79.2,37.6 80,37.6 C81,37.6 82,37.1 82.7,36.3 C83.9,34.7 83.6,32.5 82.1,31.3 Z" id="Path"></path>
            </g>
        </g>
    </g>
</svg>