<?xml version="1.0" encoding="UTF-8"?>
<svg width="117px" height="117px" viewBox="0 0 117 117" version="1.1" xmlns="http://www.w3.org/2000/svg" xmlns:xlink="http://www.w3.org/1999/xlink">
    <!-- Generator: Sketch 54.1 (76490) - https://sketchapp.com -->
    <title>Artboard</title>
    <desc>Created with Sketch.</desc>
    <g id="Artboard" stroke="none" stroke-width="1" fill="none" fill-rule="evenodd">
        <g id="noun_Search_2157337" transform="translate(11.000000, 11.000000)" fill="#FFFFFF" fill-rule="nonzero">
            <path d="M94.6,83.9 L70.8,60 C80.9,44.8 78.9,24.6 66,11.7 C58.7,4.5 49.1,0.5 38.8,0.5 C28.5,0.5 18.9,4.5 11.7,11.7 C-3.2,26.7 -3.2,51 11.7,65.9 C24.6,78.8 44.8,80.8 60,70.8 L83.9,94.7 C85,95.8 86.9,95.8 88,94.7 L94.6,88.1 C95.8,86.9 95.8,85 94.6,83.9 Z M57.2,57.2 C47.1,67.3 30.6,67.3 20.4,57.2 C10.3,47.1 10.3,30.6 20.4,20.4 C30.5,10.3 47,10.3 57.2,20.4 C67.3,30.6 67.3,47.1 57.2,57.2 Z" id="Shape"></path>
        </g>
    </g>
</svg>