<?xml version="1.0" encoding="UTF-8"?>
<svg width="140px" height="140px" viewBox="0 0 140 140" version="1.1" xmlns="http://www.w3.org/2000/svg" xmlns:xlink="http://www.w3.org/1999/xlink">
    <!-- Generator: Sketch 54.1 (76490) - https://sketchapp.com -->
    <title>Artboard</title>
    <desc>Created with Sketch.</desc>
    <g id="Artboard" stroke="none" stroke-width="1" fill="none" fill-rule="evenodd">
        <g id="noun_Settings_1939978" transform="translate(22.000000, 22.000000)" fill="#FFFFFF" fill-rule="nonzero">
            <path d="M92.8,38.8 L82.2,37 C81.6,35.1 80.8,33.3 79.9,31.5 L86.1,22.8 C87,21.5 86.9,19.7 85.8,18.6 L77.3,10.1 C76.2,9 74.4,8.8 73.1,9.8 L64.4,16 C62.7,15.1 60.8,14.3 58.9,13.7 L57.2,3.2 C56.9,1.6 55.6,0.5 54,0.5 L42,0.5 C40.4,0.5 39.1,1.6 38.8,3.2 L37,13.8 C35.1,14.4 33.3,15.2 31.5,16.1 L22.8,9.9 C21.5,9 19.7,9.1 18.6,10.2 L10.1,18.7 C9,19.8 8.8,21.6 9.8,22.9 L16,31.6 C15.1,33.3 14.3,35.2 13.7,37.1 L3.2,38.8 C1.6,39.1 0.5,40.4 0.5,42 L0.5,54 C0.5,55.6 1.6,56.9 3.2,57.2 L13.8,59 C14.4,60.9 15.2,62.7 16.1,64.5 L9.9,73.2 C9,74.5 9.1,76.3 10.2,77.4 L18.7,85.9 C19.8,87 21.6,87.2 22.9,86.2 L31.6,80 C33.3,80.9 35.2,81.7 37.1,82.3 L38.9,92.9 C39.2,94.5 40.5,95.6 42.1,95.6 L54.1,95.6 C55.7,95.6 57,94.5 57.3,92.9 L59,82.2 C60.9,81.6 62.7,80.8 64.5,79.9 L73.2,86.1 C74.5,87 76.3,86.9 77.4,85.8 L85.9,77.3 C87,76.2 87.2,74.4 86.2,73.1 L80,64.4 C80.9,62.7 81.7,60.8 82.3,58.9 L92.9,57.1 C94.5,56.8 95.6,55.5 95.6,53.9 L95.6,42 C95.5,40.4 94.4,39.1 92.8,38.8 Z M48,65.1 C38.5,65.1 30.9,57.4 30.9,48 C30.9,38.5 38.6,30.9 48,30.9 C57.4,30.9 65.1,38.5 65.1,48 C65.1,57.5 57.5,65.1 48,65.1 Z" id="Shape"></path>
        </g>
    </g>
</svg>