<?xml version="1.0" encoding="UTF-8"?>
<svg width="84px" height="83px" viewBox="0 0 84 83" version="1.1" xmlns="http://www.w3.org/2000/svg" xmlns:xlink="http://www.w3.org/1999/xlink">
    <!-- Generator: Sketch 54.1 (76490) - https://sketchapp.com -->
    <title>Artboard</title>
    <desc>Created with Sketch.</desc>
    <g id="Artboard" stroke="none" stroke-width="1" fill="none" fill-rule="evenodd" transform="translate(1.000000, 0.000000)">
        <path d="M55,42.5 C55,35.048 48.952,29 41.5,29 C34.048,29 28,35.048 28,42.5 C28,49.952 34.048,56 41.5,56 C48.952,56 55,49.952 55,42.5 Z M41.5,53.84 C35.236,53.84 30.16,48.764 30.16,42.5 C30.16,36.236 35.236,31.16 41.5,31.16 C47.764,31.16 52.84,36.236 52.84,42.5 C52.84,48.764 47.764,53.84 41.5,53.84 Z" id="Shape" fill="#FFFFFF" fill-rule="nonzero"></path>
        <path d="M51.4057996,28.7871998 C51.6225536,28.9467999 51.8393076,29 52.0560616,29 C52.3811926,29 52.7063236,28.8403998 52.9230776,28.5743995 L55.7950681,24.6907954 C56.1201991,24.2119949 56.0660106,23.5735942 55.5783141,23.2011938 C55.0906176,22.8819934 54.4403556,22.9351935 54.0610361,23.413994 L51.1890456,27.2975982 C50.8639146,27.7763987 50.9722916,28.4679994 51.4057996,28.7871998 Z" id="Path" fill="#FFFFFF" fill-rule="nonzero"></path>
        <path d="M58.1056924,38 C58.2170555,38 58.3284187,38 58.4397818,37.9410529 L63.2283971,36.2905333 C63.8408944,36.1136919 64.1193022,35.4063264 63.9522575,34.8168551 C63.7852128,34.1684367 63.1170339,33.8737011 62.5602182,34.0505425 L57.7716029,35.701062 C57.1591056,35.8779034 56.8806978,36.5852689 57.0477425,37.1747402 C57.2147872,37.7052644 57.6045582,38 58.1056924,38 Z" id="Path" fill="#FFFFFF" fill-rule="nonzero"></path>
        <path d="M57.7906644,48.2905333 L62.5646245,49.9410529 C62.6756468,50 62.7866692,50 62.8976915,50 C63.3417808,50 63.7858701,49.7052644 63.9524036,49.1747402 C64.1189371,48.5263218 63.8413813,47.8779034 63.2307585,47.701062 L58.4567984,46.0505425 C57.8461756,45.8737011 57.2355528,46.1684367 57.0690193,46.8168551 C56.8469746,47.4063264 57.1800416,48.0547448 57.7906644,48.2905333 Z" id="Path" fill="#FFFFFF" fill-rule="nonzero"></path>
        <path d="M54.0619864,60.5760066 C54.2760764,60.8410025 54.5972115,61 54.9183466,61 C55.1324366,61 55.3465266,60.9470008 55.5606167,60.7880033 C56.0423193,60.4700083 56.1493643,59.7810191 55.7747067,59.3040265 L52.9380136,55.435087 C52.6168786,54.9580945 51.9210859,54.8520962 51.4393833,55.2230904 C50.9576807,55.5410854 50.8506357,56.2300746 51.2252933,56.7070671 L54.0619864,60.5760066 Z" id="Path" fill="#FFFFFF" fill-rule="nonzero"></path>
        <path d="M41,59.0769231 L41,63.9230769 C41,64.5153846 41.45,65 42,65 C42.55,65 43,64.5153846 43,63.9230769 L43,59.0769231 C43,58.4846154 42.55,58 42,58 C41.45,58 41,58.4846154 41,59.0769231 Z" id="Path" fill="#FFFFFF" fill-rule="nonzero"></path>
        <path d="M28.4414032,60.7871998 C28.6564774,60.9467999 28.8715516,61 29.0866259,61 C29.4092372,61 29.7318485,60.8403998 29.9469228,60.5743995 L32.7966563,56.6907954 C33.1192676,56.2119949 33.0654991,55.5735942 32.581582,55.2011938 C32.097665,54.8819934 31.4524423,54.9351935 31.0760625,55.413994 L28.2263289,59.2975982 C27.849949,59.7763987 27.9574862,60.4147994 28.4414032,60.7871998 Z" id="Path" fill="#FFFFFF" fill-rule="nonzero"></path>
        <path d="M21.1056924,50 C21.2170555,50 21.3284187,50 21.4397818,49.9410529 L26.2283971,48.2905333 C26.8408944,48.1136919 27.1193022,47.4063264 26.9522575,46.8168551 C26.7852128,46.1684367 26.1170339,45.8737011 25.5602182,46.0505425 L20.7716029,47.701062 C20.1591056,47.8779034 19.8806978,48.5852689 20.0477425,49.1747402 C20.1591056,49.6463172 20.6045582,50 21.1056924,50 Z" id="Path" fill="#FFFFFF" fill-rule="nonzero"></path>
        <path d="M20.767513,36.2905333 L25.5592727,37.9410529 C25.670709,38 25.7821453,38 25.8935816,38 C26.3393267,38 26.7850717,37.7052644 26.9522262,37.1747402 C27.1193806,36.5263218 26.8407899,35.8779034 26.2278904,35.701062 L21.4361307,34.0505425 C20.8789493,33.8737011 20.2103317,34.1684367 20.0431773,34.8168551 C19.8760228,35.4652735 20.2103317,36.1136919 20.767513,36.2905333 Z" id="Path" fill="#FFFFFF" fill-rule="nonzero"></path>
        <path d="M31.0619864,28.5760066 C31.2760764,28.8410025 31.5972115,29 31.9183466,29 C32.1324366,29 32.3465266,28.9470008 32.5606167,28.7880033 C33.0423193,28.4700083 33.1493643,27.7810191 32.7747067,27.3040265 L29.9380136,23.435087 C29.6168786,22.9580945 28.9210859,22.8520962 28.4393833,23.2230904 C27.9576807,23.5410854 27.8506357,24.2300746 28.2252933,24.7070671 L31.0619864,28.5760066 Z" id="Path" fill="#FFFFFF" fill-rule="nonzero"></path>
        <path d="M42,26 C42.55,26 43,25.5153846 43,24.9230769 L43,20.0769231 C43,19.4846154 42.55,19 42,19 C41.45,19 41,19.4846154 41,20.0769231 L41,24.9230769 C41,25.5153846 41.45,26 42,26 Z" id="Path" fill="#FFFFFF" fill-rule="nonzero"></path>
    </g>
</svg>